<svg width="1920" height="1080" xmlns="http://www.w3.org/2000/svg" id="svg_copy"><rect x="0" y="0" width="1920" height="1080" style="fill: #ffffff;"></rect><rect x="0" y="0" width="0.9465919643027033" height="6.432350610431864" style="fill: #ffffff;"></rect><rect x="0.9465919643027033" y="0" width="1919.0534080356972" height="6.432350610431864" style="fill: #ffffff;"></rect><rect x="0" y="6.432350610431864" width="0.9465919643027033" height="1073.567649389568" style="fill: #ffffff;"></rect><rect x="0.9465919643027033" y="6.432350610431864" width="1919.0534080356972" height="1073.567649389568" style="fill: #ffffff;"></rect><rect x="0.9465919643027033" y="6.432350610431864" width="1812.3908020997208" height="909.7961769365884" style="fill: #ffffff;"></rect><rect x="1813.3373940640236" y="6.432350610431864" width="106.66260593597644" height="909.7961769365884" style="fill: #ffffff;"></rect><rect x="0.9465919643027033" y="916.2285275470202" width="1812.3908020997208" height="163.77147245297976" style="fill: #ffffff;"></rect><rect x="1813.3373940640236" y="916.2285275470202" width="106.66260593597644" height="163.77147245297976" style="fill: #ffffff;"></rect><rect x="0.9465919643027033" y="6.432350610431864" width="1133.7137721964934" height="307.5772223057546" style="fill: #ffffff;"></rect><rect x="1134.6603641607962" y="6.432350610431864" width="678.6770299032273" height="307.5772223057546" style="fill: #ffffff;"></rect><rect x="0.9465919643027033" y="314.00957291618647" width="1133.7137721964934" height="602.2189546308338" style="fill: #ffffff;"></rect><rect x="1134.6603641607962" y="314.00957291618647" width="678.6770299032273" height="602.2189546308338" style="fill: #ffffff;"></rect><rect x="0.9465919643027033" y="6.432350610431864" width="93.3344398911134" height="250.42299444467096" style="fill: #FFFFFF;stroke-width: 2; stroke: #FFFFFF;"></rect><rect x="94.2810318554161" y="6.432350610431864" width="1040.37933230538" height="250.42299444467096" style="fill: #FFFFFF;stroke-width: 2; stroke: #FFFFFF;"></rect><rect x="0.9465919643027033" y="256.8553450551028" width="93.3344398911134" height="57.154227861083655" style="fill: #EC9041;stroke-width: 2; stroke: #EC9041;"></rect><rect x="94.2810318554161" y="256.8553450551028" width="1040.37933230538" height="57.154227861083655" style="fill: #FFFFFF;stroke-width: 2; stroke: #FFFFFF;"></rect><rect x="1134.6603641607962" y="6.432350610431864" width="402.0353393228696" height="171.03593192822552" style="fill: #FFFFFF;stroke-width: 2; stroke: #FFFFFF;"></rect><rect x="1536.695703483666" y="6.432350610431864" width="276.6416905803577" height="171.03593192822552" style="fill: #FFFFFF;stroke-width: 2; stroke: #FFFFFF;"></rect><rect x="1134.6603641607962" y="177.46828253865738" width="402.0353393228696" height="136.5412903775291" style="fill: #FFFFFF;stroke-width: 2; stroke: #FFFFFF;"></rect><rect x="1536.695703483666" y="177.46828253865738" width="276.6416905803577" height="136.5412903775291" style="fill: #ffffff;"></rect><rect x="1536.695703483666" y="177.46828253865738" width="106.00288571481953" height="77.61294400406908" style="fill: #D89A5E;stroke-width: 2; stroke: #D89A5E;"></rect><rect x="1642.6985891984855" y="177.46828253865738" width="170.6388048655382" height="77.61294400406908" style="fill: #D89A5E;stroke-width: 2; stroke: #D89A5E;"></rect><rect x="1536.695703483666" y="255.08122654272645" width="106.00288571481953" height="58.928346373460016" style="fill: #B99B7F;stroke-width: 2; stroke: #B99B7F;"></rect><rect x="1642.6985891984855" y="255.08122654272645" width="170.6388048655382" height="58.928346373460016" style="fill: #D89A5E;stroke-width: 2; stroke: #D89A5E;"></rect><rect x="0.9465919643027033" y="314.00957291618647" width="166.4806980956698" height="219.73347890582747" style="fill: #ffffff;"></rect><rect x="167.4272900599725" y="314.00957291618647" width="967.2330741008236" height="219.73347890582747" style="fill: #EBA56A;stroke-width: 2; stroke: #EBA56A;"></rect><rect x="0.9465919643027033" y="533.743051822014" width="166.4806980956698" height="382.48547572500627" style="fill: #E4934E;stroke-width: 2; stroke: #E4934E;"></rect><rect x="167.4272900599725" y="533.743051822014" width="967.2330741008236" height="382.48547572500627" style="fill: #ffffff;"></rect><rect x="0.9465919643027033" y="314.00957291618647" width="88.86315149745379" height="216.23320706836833" style="fill: #EBA56A;stroke-width: 2; stroke: #EBA56A;"></rect><rect x="89.80974346175648" y="314.00957291618647" width="77.61754659821601" height="216.23320706836833" style="fill: #EBA56A;stroke-width: 2; stroke: #EBA56A;"></rect><rect x="0.9465919643027033" y="530.2427799845548" width="88.86315149745379" height="3.500271837459138" style="fill: #806857;stroke-width: 2; stroke: #806857;"></rect><rect x="89.80974346175648" y="530.2427799845548" width="77.61754659821601" height="3.500271837459138" style="fill: #806857;stroke-width: 2; stroke: #806857;"></rect><rect x="167.4272900599725" y="533.743051822014" width="204.56892406795004" height="335.44958552823425" style="fill: #ffffff;"></rect><rect x="371.99621412792254" y="533.743051822014" width="762.6641500328737" height="335.44958552823425" style="fill: #ffffff;"></rect><rect x="167.4272900599725" y="869.1926373502482" width="204.56892406795004" height="47.035890196772016" style="fill: #ffffff;"></rect><rect x="371.99621412792254" y="869.1926373502482" width="762.6641500328737" height="47.035890196772016" style="fill: #ffffff;"></rect><rect x="167.4272900599725" y="533.743051822014" width="4.1073372805289265" height="125.8149781478018" style="fill: #806857;stroke-width: 2; stroke: #806857;"></rect><rect x="171.53462734050143" y="533.743051822014" width="200.4615867874211" height="125.8149781478018" style="fill: #EBA56A;stroke-width: 2; stroke: #EBA56A;"></rect><rect x="167.4272900599725" y="659.5580299698157" width="4.1073372805289265" height="209.63460738043244" style="fill: #806857;stroke-width: 2; stroke: #806857;"></rect><rect x="171.53462734050143" y="659.5580299698157" width="200.4615867874211" height="209.63460738043244" style="fill: #ffffff;"></rect><rect x="171.53462734050143" y="659.5580299698157" width="71.61147174312246" height="203.66847229198316" style="fill: #EBA56A;stroke-width: 2; stroke: #EBA56A;"></rect><rect x="243.14609908362388" y="659.5580299698157" width="128.85011504429866" height="203.66847229198316" style="fill: #EBA56A;stroke-width: 2; stroke: #EBA56A;"></rect><rect x="171.53462734050143" y="863.2265022617989" width="71.61147174312246" height="5.966135088449278" style="fill: #806857;stroke-width: 2; stroke: #806857;"></rect><rect x="243.14609908362388" y="863.2265022617989" width="128.85011504429866" height="5.966135088449278" style="fill: #806857;stroke-width: 2; stroke: #806857;"></rect><rect x="371.99621412792254" y="533.743051822014" width="734.9383866262629" height="35.19991530050544" style="fill: #EBA56A;stroke-width: 2; stroke: #EBA56A;"></rect><rect x="1106.9346007541853" y="533.743051822014" width="27.725763406610895" height="35.19991530050544" style="fill: #E4D1C3;stroke-width: 2; stroke: #E4D1C3;"></rect><rect x="371.99621412792254" y="568.9429671225193" width="734.9383866262629" height="300.2496702277288" style="fill: #ffffff;"></rect><rect x="1106.9346007541853" y="568.9429671225193" width="27.725763406610895" height="300.2496702277288" style="fill: #E4D1C3;stroke-width: 2; stroke: #E4D1C3;"></rect><rect x="371.99621412792254" y="568.9429671225193" width="435.1371224575783" height="45.416252293808725" style="fill: #EBA56A;stroke-width: 2; stroke: #EBA56A;"></rect><rect x="807.1333365855008" y="568.9429671225193" width="299.8012641686845" height="45.416252293808725" style="fill: #EBA56A;"></rect><rect x="371.99621412792254" y="614.3592194163281" width="435.1371224575783" height="254.83341793392003" style="fill: #EBA56A;stroke-width: 2; stroke: #EBA56A;"></rect><rect x="807.1333365855008" y="614.3592194163281" width="299.8012641686845" height="254.83341793392003" style="fill: #ffffff;"></rect><rect x="807.1333365855008" y="614.3592194163281" width="111.49461637946537" height="127.62923979092037" style="fill: #DD985D;stroke-width: 2; stroke: #DD985D;"></rect><rect x="918.6279529649662" y="614.3592194163281" width="188.30664778921914" height="127.62923979092037" style="fill: #EBA56A;"></rect><rect x="807.1333365855008" y="741.9884592072484" width="111.49461637946537" height="127.20417814299967" style="fill: #DD985D;stroke-width: 2; stroke: #DD985D;"></rect><rect x="918.6279529649662" y="741.9884592072484" width="188.30664778921914" height="127.20417814299967" style="fill: #EBA56A;"></rect><rect x="167.4272900599725" y="869.1926373502482" width="157.43784842484388" height="23.674974312812154" style="fill: #DDA779;stroke-width: 2; stroke: #DDA779;"></rect><rect x="324.8651384848164" y="869.1926373502482" width="47.13107564310616" height="23.674974312812154" style="fill: #FFFFFF;stroke-width: 2; stroke: #FFFFFF;"></rect><rect x="167.4272900599725" y="892.8676116630604" width="157.43784842484388" height="23.360915883959862" style="fill: #DDA779;stroke-width: 2; stroke: #DDA779;"></rect><rect x="324.8651384848164" y="892.8676116630604" width="47.13107564310616" height="23.360915883959862" style="fill: #FFFFFF;stroke-width: 2; stroke: #FFFFFF;"></rect><rect x="371.99621412792254" y="869.1926373502482" width="437.2620335585464" height="0.15591418224823883" style="fill: #EBA56A;"></rect><rect x="809.258247686469" y="869.1926373502482" width="325.4021164743273" height="0.15591418224823883" style="fill: #DF995E;"></rect><rect x="371.99621412792254" y="869.3485515324965" width="437.2620335585464" height="46.87997601452378" style="fill: #EBA56A;stroke-width: 2; stroke: #EBA56A;"></rect><rect x="809.258247686469" y="869.3485515324965" width="325.4021164743273" height="46.87997601452378" style="fill: #DF995E;"></rect><rect x="1134.6603641607962" y="314.00957291618647" width="181.06309437699724" height="427.4355841485394" style="fill: #ffffff;"></rect><rect x="1315.7234585377935" y="314.00957291618647" width="497.6139355262301" height="427.4355841485394" style="fill: #ffffff;"></rect><rect x="1134.6603641607962" y="741.4451570647259" width="181.06309437699724" height="174.78337048229434" style="fill: #ffffff;"></rect><rect x="1315.7234585377935" y="741.4451570647259" width="497.6139355262301" height="174.78337048229434" style="fill: #ffffff;"></rect><rect x="1134.6603641607962" y="314.00957291618647" width="97.65204873124712" height="189.83209559775986" style="fill: #CF925B;stroke-width: 2; stroke: #CF925B;"></rect><rect x="1232.3124128920433" y="314.00957291618647" width="83.41104564575012" height="189.83209559775986" style="fill: #CF925B;stroke-width: 2; stroke: #CF925B;"></rect><rect x="1134.6603641607962" y="503.84166851394633" width="97.65204873124712" height="237.60348855077956" style="fill: #CF925B;stroke-width: 2; stroke: #CF925B;"></rect><rect x="1232.3124128920433" y="503.84166851394633" width="83.41104564575012" height="237.60348855077956" style="fill: #CF925B;stroke-width: 2; stroke: #CF925B;"></rect><rect x="1315.7234585377935" y="314.00957291618647" width="204.3771344022441" height="223.89485001247164" style="fill: #ffffff;"></rect><rect x="1520.1005929400376" y="314.00957291618647" width="293.23680112398597" height="223.89485001247164" style="fill: #ffffff;"></rect><rect x="1315.7234585377935" y="537.904422928658" width="204.3771344022441" height="203.54073413606778" style="fill: #CF925B;"></rect><rect x="1520.1005929400376" y="537.904422928658" width="293.23680112398597" height="203.54073413606778" style="fill: #ffffff;"></rect><rect x="1315.7234585377935" y="314.00957291618647" width="145.98887452611876" height="163.10434504003214" style="fill: #CF925B;stroke-width: 2; stroke: #CF925B;"></rect><rect x="1461.7123330639122" y="314.00957291618647" width="58.388259876125346" height="163.10434504003214" style="fill: #CF925B;stroke-width: 2; stroke: #CF925B;"></rect><rect x="1315.7234585377935" y="477.11391795621864" width="145.98887452611876" height="60.79050497243949" style="fill: #CF925B;stroke-width: 2; stroke: #CF925B;"></rect><rect x="1461.7123330639122" y="477.11391795621864" width="58.388259876125346" height="60.79050497243949" style="fill: #ffffff;"></rect><rect x="1461.7123330639122" y="477.11391795621864" width="4.275696130470636" height="5.746603779258257" style="fill: #FFFFFF;stroke-width: 2; stroke: #FFFFFF;"></rect><rect x="1465.9880291943828" y="477.11391795621864" width="54.11256374565471" height="5.746603779258257" style="fill: #FFFFFF;stroke-width: 2; stroke: #FFFFFF;"></rect><rect x="1461.7123330639122" y="482.8605217354769" width="4.275696130470636" height="55.043901193181235" style="fill: #FFFFFF;stroke-width: 2; stroke: #FFFFFF;"></rect><rect x="1465.9880291943828" y="482.8605217354769" width="54.11256374565471" height="55.043901193181235" style="fill: #ffffff;"></rect><rect x="1465.9880291943828" y="482.8605217354769" width="48.623591750029114" height="50.40082595028174" style="fill: #ffffff;"></rect><rect x="1514.611620944412" y="482.8605217354769" width="5.488971995625597" height="50.40082595028174" style="fill: #FFFFFF;stroke-width: 2; stroke: #FFFFFF;"></rect><rect x="1465.9880291943828" y="533.2613476857587" width="48.623591750029114" height="4.643075242899492" style="fill: #FFFFFF;stroke-width: 2; stroke: #FFFFFF;"></rect><rect x="1514.611620944412" y="533.2613476857587" width="5.488971995625597" height="4.643075242899492" style="fill: #FFFFFF;stroke-width: 2; stroke: #FFFFFF;"></rect><rect x="1465.9880291943828" y="482.8605217354769" width="20.10002435271026" height="21.32698761136897" style="fill: #000000;stroke-width: 2; stroke: #000000;"></rect><rect x="1486.088053547093" y="482.8605217354769" width="28.523567397318853" height="21.32698761136897" style="fill: #000000;stroke-width: 2; stroke: #000000;"></rect><rect x="1465.9880291943828" y="504.18750934684584" width="20.10002435271026" height="29.073838338912772" style="fill: #000000;stroke-width: 2; stroke: #000000;"></rect><rect x="1486.088053547093" y="504.18750934684584" width="28.523567397318853" height="29.073838338912772" style="fill: #ffffff;"></rect><rect x="1486.088053547093" y="504.18750934684584" width="10.752126168729498" height="8.32712263547722" style="fill: #FFFFFF;stroke-width: 2; stroke: #FFFFFF;"></rect><rect x="1496.8401797158226" y="504.18750934684584" width="17.771441228589353" height="8.32712263547722" style="fill: #000000;stroke-width: 2; stroke: #000000;"></rect><rect x="1486.088053547093" y="512.5146319823231" width="10.752126168729498" height="20.74671570343555" style="fill: #000000;stroke-width: 2; stroke: #000000;"></rect><rect x="1496.8401797158226" y="512.5146319823231" width="17.771441228589353" height="20.74671570343555" style="fill: #000000;stroke-width: 2; stroke: #000000;"></rect><rect x="1520.1005929400376" y="314.00957291618647" width="179.12141843608705" height="31.995998378819188" style="fill: #CF925B;stroke-width: 2; stroke: #CF925B;"></rect><rect x="1699.2220113761246" y="314.00957291618647" width="114.11538268789892" height="31.995998378819188" style="fill: #CF925B;stroke-width: 2; stroke: #CF925B;"></rect><rect x="1520.1005929400376" y="346.00557129500567" width="179.12141843608705" height="191.89885163365244" style="fill: #ffffff;"></rect><rect x="1699.2220113761246" y="346.00557129500567" width="114.11538268789892" height="191.89885163365244" style="fill: #CF925B;stroke-width: 2; stroke: #CF925B;"></rect><rect x="1520.1005929400376" y="346.00557129500567" width="38.84252932502882" height="114.54706774850668" style="fill: #ffffff;"></rect><rect x="1558.9431222650664" y="346.00557129500567" width="140.27888911105822" height="114.54706774850668" style="fill: #ffffff;"></rect><rect x="1520.1005929400376" y="460.55263904351233" width="38.84252932502882" height="77.35178388514576" style="fill: #CF925B;stroke-width: 2; stroke: #CF925B;"></rect><rect x="1558.9431222650664" y="460.55263904351233" width="140.27888911105822" height="77.35178388514576" style="fill: #ffffff;"></rect><rect x="1520.1005929400376" y="346.00557129500567" width="27.312178853886273" height="28.05513325965544" style="fill: #CF925B;stroke-width: 2; stroke: #CF925B;"></rect><rect x="1547.4127717939239" y="346.00557129500567" width="11.530350471142548" height="28.05513325965544" style="fill: #CF925B;stroke-width: 2; stroke: #CF925B;"></rect><rect x="1520.1005929400376" y="374.06070455466113" width="27.312178853886273" height="86.49193448885123" style="fill: #CF925B;stroke-width: 2; stroke: #CF925B;"></rect><rect x="1547.4127717939239" y="374.06070455466113" width="11.530350471142548" height="86.49193448885123" style="fill: #453E36;stroke-width: 2; stroke: #453E36;"></rect><rect x="1558.9431222650664" y="346.00557129500567" width="9.040769118976078" height="96.9989430471267" style="fill: #CF925B;stroke-width: 2; stroke: #CF925B;"></rect><rect x="1567.9838913840426" y="346.00557129500567" width="131.23811999208215" height="96.9989430471267" style="fill: #CF925B;stroke-width: 2; stroke: #CF925B;"></rect><rect x="1558.9431222650664" y="443.0045143421324" width="9.040769118976078" height="17.548124701379976" style="fill: #453E36;stroke-width: 2; stroke: #453E36;"></rect><rect x="1567.9838913840426" y="443.0045143421324" width="131.23811999208215" height="17.548124701379976" style="fill: #CF925B;stroke-width: 2; stroke: #CF925B;"></rect><rect x="1558.9431222650664" y="460.55263904351233" width="9.39474253376195" height="72.74007287463526" style="fill: #453E36;stroke-width: 2; stroke: #453E36;"></rect><rect x="1568.3378647988284" y="460.55263904351233" width="130.88414657729626" height="72.74007287463526" style="fill: #CF925B;stroke-width: 2; stroke: #CF925B;"></rect><rect x="1558.9431222650664" y="533.2927119181476" width="9.39474253376195" height="4.611711010510504" style="fill: #CF925B;stroke-width: 2; stroke: #CF925B;"></rect><rect x="1568.3378647988284" y="533.2927119181476" width="130.88414657729626" height="4.611711010510504" style="fill: #CF925B;stroke-width: 2; stroke: #CF925B;"></rect><rect x="1520.1005929400376" y="537.904422928658" width="228.0782112838034" height="66.69760936995891" style="fill: #CF925B;stroke-width: 2; stroke: #CF925B;"></rect><rect x="1748.1788042238409" y="537.904422928658" width="65.15858984018257" height="66.69760936995891" style="fill: #E8E8E8;stroke-width: 2; stroke: #E8E8E8;"></rect><rect x="1520.1005929400376" y="604.6020322986169" width="228.0782112838034" height="136.84312476610887" style="fill: #CF925B;stroke-width: 2; stroke: #CF925B;"></rect><rect x="1748.1788042238409" y="604.6020322986169" width="65.15858984018257" height="136.84312476610887" style="fill: #CF925B;stroke-width: 2; stroke: #CF925B;"></rect><rect x="1134.6603641607962" y="741.4451570647259" width="65.68073907782534" height="119.70540468118065" style="fill: #D2A06A;stroke-width: 2; stroke: #D2A06A;"></rect><rect x="1200.3411032386216" y="741.4451570647259" width="115.3823552991719" height="119.70540468118065" style="fill: #000000;"></rect><rect x="1134.6603641607962" y="861.1505617459065" width="65.68073907782534" height="55.07796580111369" style="fill: #ffffff;"></rect><rect x="1200.3411032386216" y="861.1505617459065" width="115.3823552991719" height="55.07796580111369" style="fill: #D2A06A;stroke-width: 2; stroke: #D2A06A;"></rect><rect x="1134.6603641607962" y="861.1505617459065" width="18.6743948137987" height="34.54172277376051" style="fill: #E97A78;stroke-width: 2; stroke: #E97A78;"></rect><rect x="1153.334758974595" y="861.1505617459065" width="47.006344264026666" height="34.54172277376051" style="fill: #E9605E;stroke-width: 2; stroke: #E9605E;"></rect><rect x="1134.6603641607962" y="895.692284519667" width="18.6743948137987" height="20.53624302735318" style="fill: #E49290;stroke-width: 2; stroke: #E49290;"></rect><rect x="1153.334758974595" y="895.692284519667" width="47.006344264026666" height="20.53624302735318" style="fill: #E97A78;stroke-width: 2; stroke: #E97A78;"></rect><rect x="1315.7234585377935" y="741.4451570647259" width="11.356711938119643" height="102.17983726894379" style="fill: #D2A06A;stroke-width: 2; stroke: #D2A06A;"></rect><rect x="1327.080170475913" y="741.4451570647259" width="486.25722358811043" height="102.17983726894379" style="fill: #ffffff;"></rect><rect x="1315.7234585377935" y="843.6249943336696" width="11.356711938119643" height="72.60353321335056" style="fill: #D2A06A;stroke-width: 2; stroke: #D2A06A;"></rect><rect x="1327.080170475913" y="843.6249943336696" width="486.25722358811043" height="72.60353321335056" style="fill: #CF925B;stroke-width: 2; stroke: #CF925B;"></rect><rect x="1327.080170475913" y="741.4451570647259" width="270.84251595794194" height="43.948323228273864" style="fill: #CF925B;stroke-width: 2; stroke: #CF925B;"></rect><rect x="1597.922686433855" y="741.4451570647259" width="215.4147076301685" height="43.948323228273864" style="fill: #ffffff;"></rect><rect x="1327.080170475913" y="785.3934802929998" width="270.84251595794194" height="58.23151404066992" style="fill: #CF925B;stroke-width: 2; stroke: #CF925B;"></rect><rect x="1597.922686433855" y="785.3934802929998" width="215.4147076301685" height="58.23151404066992" style="fill: #ffffff;"></rect><rect x="1597.922686433855" y="741.4451570647259" width="101.31009096994603" height="15.783284260042155" style="fill: #453E36;stroke-width: 2; stroke: #453E36;"></rect><rect x="1699.232777403801" y="741.4451570647259" width="114.10461666022246" height="15.783284260042155" style="fill: #CF925B;stroke-width: 2; stroke: #CF925B;"></rect><rect x="1597.922686433855" y="757.228441324768" width="101.31009096994603" height="28.16503896823171" style="fill: #CF925B;stroke-width: 2; stroke: #CF925B;"></rect><rect x="1699.232777403801" y="757.228441324768" width="114.10461666022246" height="28.16503896823171" style="fill: #CF925B;stroke-width: 2; stroke: #CF925B;"></rect><rect x="1597.922686433855" y="785.3934802929998" width="44.644639459162015" height="41.94959275039794" style="fill: #ffffff;"></rect><rect x="1642.567325893017" y="785.3934802929998" width="170.77006817100647" height="41.94959275039794" style="fill: #CF925B;stroke-width: 2; stroke: #CF925B;"></rect><rect x="1597.922686433855" y="827.3430730433978" width="44.644639459162015" height="16.28192129027198" style="fill: #CF925B;stroke-width: 2; stroke: #CF925B;"></rect><rect x="1642.567325893017" y="827.3430730433978" width="170.77006817100647" height="16.28192129027198" style="fill: #CF925B;stroke-width: 2; stroke: #CF925B;"></rect><rect x="1597.922686433855" y="785.3934802929998" width="1.8429256748786527" height="6.124736522443931" style="fill: #FFFFFF;"></rect><rect x="1599.7656121087336" y="785.3934802929998" width="42.801713784283365" height="6.124736522443931" style="fill: #FFFFFF;stroke-width: 2; stroke: #FFFFFF;"></rect><rect x="1597.922686433855" y="791.5182168154438" width="1.8429256748786527" height="35.82485622795401" style="fill: #FFFFFF;"></rect><rect x="1599.7656121087336" y="791.5182168154438" width="42.801713784283365" height="35.82485622795401" style="fill: #ffffff;"></rect><rect x="1599.7656121087336" y="791.5182168154438" width="40.844376003705186" height="30.859249401544663" style="fill: #ffffff;"></rect><rect x="1640.609988112439" y="791.5182168154438" width="1.9573377805781789" height="30.859249401544663" style="fill: #FFFFFF;"></rect><rect x="1599.7656121087336" y="822.3774662169884" width="40.844376003705186" height="4.965606826409346" style="fill: #FFFFFF;stroke-width: 2; stroke: #FFFFFF;"></rect><rect x="1640.609988112439" y="822.3774662169884" width="1.9573377805781789" height="4.965606826409346" style="fill: #FFFFFF;"></rect><rect x="1599.7656121087336" y="791.5182168154438" width="19.928660311264103" height="13.791595962148572" style="fill: #000000;stroke-width: 2; stroke: #000000;"></rect><rect x="1619.6942724199978" y="791.5182168154438" width="20.915715692441083" height="13.791595962148572" style="fill: #000000;stroke-width: 2; stroke: #000000;"></rect><rect x="1599.7656121087336" y="805.3098127775924" width="19.928660311264103" height="17.06765343939609" style="fill: #000000;stroke-width: 2; stroke: #000000;"></rect><rect x="1619.6942724199978" y="805.3098127775924" width="20.915715692441083" height="17.06765343939609" style="fill: #ffffff;"></rect><rect x="1619.6942724199978" y="805.3098127775924" width="3.8391523338029" height="10.463570082643077" style="fill: #FFFFFF;stroke-width: 2; stroke: #FFFFFF;"></rect><rect x="1623.5334247538008" y="805.3098127775924" width="17.076563358638182" height="10.463570082643077" style="fill: #000000;stroke-width: 2; stroke: #000000;"></rect><rect x="1619.6942724199978" y="815.7733828602354" width="3.8391523338029" height="6.604083356753012" style="fill: #000000;stroke-width: 2; stroke: #000000;"></rect><rect x="1623.5334247538008" y="815.7733828602354" width="17.076563358638182" height="6.604083356753012" style="fill: #000000;stroke-width: 2; stroke: #000000;"></rect><rect x="1813.3373940640236" y="6.432350610431864" width="104.46098703958396" height="745.4612581870572" style="fill: #FFFFFF;stroke-width: 2; stroke: #FFFFFF;"></rect><rect x="1917.7983811036074" y="6.432350610431864" width="2.201618896392489" height="745.4612581870572" style="fill: #ffffff;"></rect><rect x="1813.3373940640236" y="751.893608797489" width="104.46098703958396" height="164.3349187495312" style="fill: #ffffff;"></rect><rect x="1917.7983811036074" y="751.893608797489" width="2.201618896392489" height="164.3349187495312" style="fill: #ffffff;"></rect><rect x="1813.3373940640236" y="751.893608797489" width="59.163739381907966" height="65.54398487444865" style="fill: #CF925B;stroke-width: 2; stroke: #CF925B;"></rect><rect x="1872.5011334459316" y="751.893608797489" width="45.29724765767599" height="65.54398487444865" style="fill: #CF925B;stroke-width: 2; stroke: #CF925B;"></rect><rect x="1813.3373940640236" y="817.4375936719377" width="59.163739381907966" height="98.79093387508254" style="fill: #AF9678;stroke-width: 2; stroke: #AF9678;"></rect><rect x="1872.5011334459316" y="817.4375936719377" width="45.29724765767599" height="98.79093387508254" style="fill: #CF925B;stroke-width: 2; stroke: #CF925B;"></rect><rect x="918.6279529649662" y="614.3592194163281" width="2.521668428031089" height="42.47074324174142" style="fill: #615B56;stroke-width: 2; stroke: #615B56;"></rect><rect x="921.1496213929972" y="614.3592194163281" width="185.78497936118805" height="42.47074324174142" style="fill: #EBA56A;stroke-width: 2; stroke: #EBA56A;"></rect><rect x="918.6279529649662" y="656.8299626580695" width="2.521668428031089" height="85.15849654917895" style="fill: #615B56;stroke-width: 2; stroke: #615B56;"></rect><rect x="921.1496213929972" y="656.8299626580695" width="185.78497936118805" height="85.15849654917895" style="fill: #EBA56A;stroke-width: 2; stroke: #EBA56A;"></rect><rect x="918.6279529649662" y="741.9884592072484" width="2.521668428031089" height="53.273892125470056" style="fill: #615B56;stroke-width: 2; stroke: #615B56;"></rect><rect x="921.1496213929972" y="741.9884592072484" width="185.78497936118805" height="53.273892125470056" style="fill: #EBA56A;stroke-width: 2; stroke: #EBA56A;"></rect><rect x="918.6279529649662" y="795.2623513327185" width="2.521668428031089" height="73.93028601752961" style="fill: #615B56;stroke-width: 2; stroke: #615B56;"></rect><rect x="921.1496213929972" y="795.2623513327185" width="185.78497936118805" height="73.93028601752961" style="fill: #EBA56A;stroke-width: 2; stroke: #EBA56A;"></rect><rect x="807.1333365855008" y="568.9429671225193" width="111.54310867122122" height="43.18536537503932" style="fill: #EBA56A;stroke-width: 2; stroke: #EBA56A;"></rect><rect x="918.6764452567221" y="568.9429671225193" width="188.2581554974633" height="43.18536537503932" style="fill: #EBA56A;stroke-width: 2; stroke: #EBA56A;"></rect><rect x="807.1333365855008" y="612.1283324975586" width="111.54310867122122" height="2.230886918769407" style="fill: #615B56;stroke-width: 2; stroke: #615B56;"></rect><rect x="918.6764452567221" y="612.1283324975586" width="188.2581554974633" height="2.230886918769407" style="fill: #EBA56A;stroke-width: 2; stroke: #EBA56A;"></rect><rect x="809.258247686469" y="869.1926373502482" width="110.7902513991873" height="0.008924263812951286" style="fill: #DF995E;"></rect><rect x="920.0484990856562" y="869.1926373502482" width="214.61186507513997" height="0.008924263812951286" style="fill: #928D88;"></rect><rect x="809.258247686469" y="869.2015616140611" width="110.7902513991873" height="0.14698991843528755" style="fill: #DF995E;"></rect><rect x="920.0484990856562" y="869.2015616140611" width="214.61186507513997" height="0.14698991843528755" style="fill: #DF995E;"></rect><rect x="809.258247686469" y="869.3485515324965" width="280.57882576730765" height="23.94483407302107" style="fill: #C29874;"></rect><rect x="1089.8370734537766" y="869.3485515324965" width="44.82329070701962" height="23.94483407302107" style="fill: #FFFFFF;stroke-width: 2; stroke: #FFFFFF;"></rect><rect x="809.258247686469" y="893.2933856055175" width="280.57882576730765" height="22.935141941502707" style="fill: #C29874;"></rect><rect x="1089.8370734537766" y="893.2933856055175" width="44.82329070701962" height="22.935141941502707" style="fill: #FFFFFF;stroke-width: 2; stroke: #FFFFFF;"></rect><rect x="809.258247686469" y="869.3485515324965" width="111.31044846473371" height="12.633325442912529" style="fill: #DD985D;stroke-width: 2; stroke: #DD985D;"></rect><rect x="920.5686961512026" y="869.3485515324965" width="169.26837730257392" height="12.633325442912529" style="fill: #D6A57C;stroke-width: 2; stroke: #D6A57C;"></rect><rect x="809.258247686469" y="881.981876975409" width="111.31044846473371" height="11.311508630108541" style="fill: #DD985D;stroke-width: 2; stroke: #DD985D;"></rect><rect x="920.5686961512026" y="881.981876975409" width="169.26837730257392" height="11.311508630108541" style="fill: #D6A57C;stroke-width: 2; stroke: #D6A57C;"></rect><rect x="809.258247686469" y="893.2933856055175" width="110.97219215516265" height="11.164376831650639" style="fill: #DD985D;stroke-width: 2; stroke: #DD985D;"></rect><rect x="920.2304398416316" y="893.2933856055175" width="169.606633612145" height="11.164376831650639" style="fill: #D6A57C;stroke-width: 2; stroke: #D6A57C;"></rect><rect x="809.258247686469" y="904.4577624371682" width="110.97219215516265" height="11.770765109852068" style="fill: #DD985D;stroke-width: 2; stroke: #DD985D;"></rect><rect x="920.2304398416316" y="904.4577624371682" width="169.606633612145" height="11.770765109852068" style="fill: #D6A57C;stroke-width: 2; stroke: #D6A57C;"></rect><rect x="1315.7234585377935" y="537.904422928658" width="13.702059957473693" height="189.03267065168382" style="fill: #CF925B;stroke-width: 2; stroke: #CF925B;"></rect><rect x="1329.4255184952672" y="537.904422928658" width="190.67507444477042" height="189.03267065168382" style="fill: #CF925B;"></rect><rect x="1315.7234585377935" y="726.9370935803419" width="13.702059957473693" height="14.508063484384024" style="fill: #CF925B;stroke-width: 2; stroke: #CF925B;"></rect><rect x="1329.4255184952672" y="726.9370935803419" width="190.67507444477042" height="14.508063484384024" style="fill: #CF925B;stroke-width: 2; stroke: #CF925B;"></rect><rect x="1329.4255184952672" y="537.904422928658" width="14.50806348438391" height="174.5246071672999" style="fill: #CF925B;stroke-width: 2; stroke: #CF925B;"></rect><rect x="1343.933581979651" y="537.904422928658" width="176.1670109603865" height="174.5246071672999" style="fill: #CF925B;"></rect><rect x="1329.4255184952672" y="712.429030095958" width="14.50806348438391" height="14.50806348438391" style="fill: #CF925B;stroke-width: 2; stroke: #CF925B;"></rect><rect x="1343.933581979651" y="712.429030095958" width="176.1670109603865" height="14.50806348438391" style="fill: #CF925B;stroke-width: 2; stroke: #CF925B;"></rect><rect x="1343.933581979651" y="537.904422928658" width="14.50806348438391" height="161.62855073673643" style="fill: #CF925B;stroke-width: 2; stroke: #CF925B;"></rect><rect x="1358.441645464035" y="537.904422928658" width="161.6589474760026" height="161.62855073673643" style="fill: #CF925B;"></rect><rect x="1343.933581979651" y="699.5329736653945" width="14.50806348438391" height="12.896056430563476" style="fill: #CF925B;stroke-width: 2; stroke: #CF925B;"></rect><rect x="1358.441645464035" y="699.5329736653945" width="161.6589474760026" height="12.896056430563476" style="fill: #CF925B;stroke-width: 2; stroke: #CF925B;"></rect><rect x="1358.441645464035" y="537.904422928658" width="11.284049376743042" height="149.53849783308317" style="fill: #CF925B;stroke-width: 2; stroke: #CF925B;"></rect><rect x="1369.725694840778" y="537.904422928658" width="150.37489809925955" height="149.53849783308317" style="fill: #CF925B;stroke-width: 2; stroke: #CF925B;"></rect><rect x="1358.441645464035" y="687.4429207617412" width="11.284049376743042" height="12.090052903653259" style="fill: #CF925B;stroke-width: 2; stroke: #CF925B;"></rect><rect x="1369.725694840778" y="687.4429207617412" width="150.37489809925955" height="12.090052903653259" style="fill: #CF925B;stroke-width: 2; stroke: #CF925B;"></rect><rect x="1200.3411032386216" y="741.4451570647259" width="7.3778789221516945" height="7.254031742191955" style="fill: #FFFFFF;stroke-width: 2; stroke: #FFFFFF;"></rect><rect x="1207.7189821607733" y="741.4451570647259" width="108.00447637702018" height="7.254031742191955" style="fill: #FFFFFF;stroke-width: 2; stroke: #FFFFFF;"></rect><rect x="1200.3411032386216" y="748.6991888069178" width="7.3778789221516945" height="112.4513729389887" style="fill: #FFFFFF;stroke-width: 2; stroke: #FFFFFF;"></rect><rect x="1207.7189821607733" y="748.6991888069178" width="108.00447637702018" height="112.4513729389887" style="fill: #000000;"></rect><rect x="1207.7189821607733" y="748.6991888069178" width="101.5564443906876" height="108.00447260596934" style="fill: #000000;stroke-width: 2; stroke: #000000;"></rect><rect x="1309.275426551461" y="748.6991888069178" width="6.44803198633258" height="108.00447260596934" style="fill: #FFFFFF;stroke-width: 2; stroke: #FFFFFF;"></rect><rect x="1207.7189821607733" y="856.7036614128872" width="101.5564443906876" height="4.446900333019357" style="fill: #FFFFFF;stroke-width: 2; stroke: #FFFFFF;"></rect><rect x="1309.275426551461" y="856.7036614128872" width="6.44803198633258" height="4.446900333019357" style="fill: #FFFFFF;stroke-width: 2; stroke: #FFFFFF;"></rect></svg>