<svg width="2496" height="1664" xmlns="http://www.w3.org/2000/svg" id="svg_copy"><rect x="0" y="0" width="2496" height="1664" style="fill: #ffffff;"></rect><rect x="0" y="0" width="153.428827501762" height="103.9066375380972" style="fill: #FFFFFF;stroke-width: 2; stroke: #FFFFFF;"></rect><rect x="153.428827501762" y="0" width="2342.571172498238" height="103.9066375380972" style="fill: #ffffff;"></rect><rect x="0" y="103.9066375380972" width="153.428827501762" height="1560.0933624619029" style="fill: #ffffff;"></rect><rect x="153.428827501762" y="103.9066375380972" width="2342.571172498238" height="1560.0933624619029" style="fill: #ffffff;"></rect><rect x="0" y="103.9066375380972" width="67.30719018976421" height="1153.8106355985615" style="fill: #ffffff;"></rect><rect x="67.30719018976421" y="103.9066375380972" width="86.12163731199777" height="1153.8106355985615" style="fill: #ffffff;"></rect><rect x="0" y="1257.7172731366586" width="67.30719018976421" height="406.2827268633414" style="fill: #ffffff;"></rect><rect x="67.30719018976421" y="1257.7172731366586" width="86.12163731199777" height="406.2827268633414" style="fill: #ffffff;"></rect><rect x="0" y="1257.7172731366586" width="28.825730353178884" height="97.36634512441515" style="fill: #ffffff;"></rect><rect x="28.825730353178884" y="1257.7172731366586" width="38.48145983658533" height="97.36634512441515" style="fill: #ffffff;"></rect><rect x="0" y="1355.0836182610738" width="28.825730353178884" height="308.91638173892625" style="fill: #ffffff;"></rect><rect x="28.825730353178884" y="1355.0836182610738" width="38.48145983658533" height="308.91638173892625" style="fill: #ffffff;"></rect><rect x="0" y="1355.0836182610738" width="11.990210446147657" height="122.27440343668172" style="fill: #6C6C6C;stroke-width: 2; stroke: #6C6C6C;"></rect><rect x="11.990210446147657" y="1355.0836182610738" width="16.835519907031227" height="122.27440343668172" style="fill: #6C6C6C;stroke-width: 2; stroke: #6C6C6C;"></rect><rect x="0" y="1477.3580216977555" width="11.990210446147657" height="186.64197830224452" style="fill: #ffffff;"></rect><rect x="11.990210446147657" y="1477.3580216977555" width="16.835519907031227" height="186.64197830224452" style="fill: #ffffff;"></rect><rect x="28.825730353178884" y="1355.0836182610738" width="24.05074272433032" height="90.57363217531974" style="fill: #6C6C6C;stroke-width: 2; stroke: #6C6C6C;"></rect><rect x="52.8764730775092" y="1355.0836182610738" width="14.43071711225501" height="90.57363217531974" style="fill: #6C6C6C;stroke-width: 2; stroke: #6C6C6C;"></rect><rect x="28.825730353178884" y="1445.6572504363935" width="24.05074272433032" height="218.3427495636065" style="fill: #ffffff;"></rect><rect x="52.8764730775092" y="1445.6572504363935" width="14.43071711225501" height="218.3427495636065" style="fill: #ffffff;"></rect><rect x="67.30719018976421" y="1257.7172731366586" width="60.12701738612479" height="126.80277558139392" style="fill: #6C6C6C;stroke-width: 2; stroke: #6C6C6C;"></rect><rect x="127.434207575889" y="1257.7172731366586" width="25.994619925872982" height="126.80277558139392" style="fill: #6C6C6C;stroke-width: 2; stroke: #6C6C6C;"></rect><rect x="67.30719018976421" y="1384.5200487180525" width="60.12701738612479" height="279.4799512819475" style="fill: #ffffff;"></rect><rect x="127.434207575889" y="1384.5200487180525" width="25.994619925872982" height="279.4799512819475" style="fill: #ffffff;"></rect><rect x="153.428827501762" y="103.9066375380972" width="44.95571070226265" height="33.04183281984528" style="fill: #FFFFFF;stroke-width: 2; stroke: #FFFFFF;"></rect><rect x="198.38453820402464" y="103.9066375380972" width="2297.6154617959755" height="33.04183281984528" style="fill: #FFFFFF;stroke-width: 2; stroke: #FFFFFF;"></rect><rect x="153.428827501762" y="136.94847035794248" width="44.95571070226265" height="1527.0515296420576" style="fill: #ffffff;"></rect><rect x="198.38453820402464" y="136.94847035794248" width="2297.6154617959755" height="1527.0515296420576" style="fill: #ffffff;"></rect><rect x="153.428827501762" y="136.94847035794248" width="0.07349441617168395" height="1037.2388026671001" style="fill: #FFFFFF;"></rect><rect x="153.50232191793367" y="136.94847035794248" width="44.882216286090966" height="1037.2388026671001" style="fill: #FFFFFF;stroke-width: 2; stroke: #FFFFFF;"></rect><rect x="153.428827501762" y="1174.1872730250425" width="0.07349441617168395" height="489.8127269749575" style="fill: #FFFFFF;"></rect><rect x="153.50232191793367" y="1174.1872730250425" width="44.882216286090966" height="489.8127269749575" style="fill: #ffffff;"></rect><rect x="153.50232191793367" y="1174.1872730250425" width="44.342998471729146" height="145.13995868324628" style="fill: #6C6C6C;stroke-width: 2; stroke: #6C6C6C;"></rect><rect x="197.84532038966282" y="1174.1872730250425" width="0.5392178143618196" height="145.13995868324628" style="fill: #FFFFFF;"></rect><rect x="153.50232191793367" y="1319.3272317082888" width="44.342998471729146" height="344.67276829171124" style="fill: #FFFFFF;stroke-width: 2; stroke: #FFFFFF;"></rect><rect x="197.84532038966282" y="1319.3272317082888" width="0.5392178143618196" height="344.67276829171124" style="fill: #FFFFFF;"></rect><rect x="198.38453820402464" y="136.94847035794248" width="89.28557494025813" height="14.980884855873683" style="fill: #FFFFFF;stroke-width: 2; stroke: #FFFFFF;"></rect><rect x="287.67011314428277" y="136.94847035794248" width="2208.329886855717" height="14.980884855873683" style="fill: #FFFFFF;stroke-width: 2; stroke: #FFFFFF;"></rect><rect x="198.38453820402464" y="151.92935521381617" width="89.28557494025813" height="1512.070644786184" style="fill: #ffffff;"></rect><rect x="287.67011314428277" y="151.92935521381617" width="2208.329886855717" height="1512.070644786184" style="fill: #ffffff;"></rect><rect x="198.38453820402464" y="151.92935521381617" width="65.23660933913061" height="1130.9976614677826" style="fill: #ffffff;"></rect><rect x="263.62114754315525" y="151.92935521381617" width="24.04896560112752" height="1130.9976614677826" style="fill: #ffffff;"></rect><rect x="198.38453820402464" y="1282.9270166815988" width="65.23660933913061" height="381.07298331840116" style="fill: #ffffff;"></rect><rect x="263.62114754315525" y="1282.9270166815988" width="24.04896560112752" height="381.07298331840116" style="fill: #ffffff;stroke-width: 2; stroke: #ffffff;"></rect><rect x="198.38453820402464" y="151.92935521381617" width="16.309152334782667" height="956.9980212419697" style="fill: #FFFFFF;stroke-width: 2; stroke: #FFFFFF;"></rect><rect x="214.6936905388073" y="151.92935521381617" width="48.92745700434794" height="956.9980212419697" style="fill: #ffffff;"></rect><rect x="198.38453820402464" y="1108.9273764557859" width="16.309152334782667" height="173.99964022581287" style="fill: #373737;stroke-width: 2; stroke: #373737;"></rect><rect x="214.6936905388073" y="1108.9273764557859" width="48.92745700434794" height="173.99964022581287" style="fill: #ffffff;"></rect><rect x="214.6936905388073" y="151.92935521381617" width="16.30915233478267" height="927.9980812043344" style="fill: #FFFFFF;stroke-width: 2; stroke: #FFFFFF;"></rect><rect x="231.00284287358997" y="151.92935521381617" width="32.618304669565276" height="927.9980812043344" style="fill: #FFFFFF;stroke-width: 2; stroke: #FFFFFF;"></rect><rect x="214.6936905388073" y="1079.9274364181506" width="16.30915233478267" height="28.99994003763527" style="fill: #b1b1b1;stroke-width: 2; stroke: #b1b1b1;"></rect><rect x="231.00284287358997" y="1079.9274364181506" width="32.618304669565276" height="28.99994003763527" style="fill: #3c3c3c;stroke-width: 2; stroke: #3c3c3c;"></rect><rect x="214.6936905388073" y="1108.9273764557859" width="16.30915233478267" height="72.49985009408854" style="fill: #2f2f2f;stroke-width: 2; stroke: #2f2f2f;"></rect><rect x="231.00284287358997" y="1108.9273764557859" width="32.618304669565276" height="72.49985009408854" style="fill: #2f2f2f;stroke-width: 2; stroke: #2f2f2f;"></rect><rect x="214.6936905388073" y="1181.4272265498744" width="16.30915233478267" height="101.49979013172432" style="fill: #6C6C6C;stroke-width: 2; stroke: #6C6C6C;"></rect><rect x="231.00284287358997" y="1181.4272265498744" width="32.618304669565276" height="101.49979013172432" style="fill: #373737;stroke-width: 2; stroke: #373737;"></rect><rect x="263.62114754315525" y="151.92935521381617" width="11.514832561070925" height="886.0118694590868" style="fill: #FFFFFF;stroke-width: 2; stroke: #FFFFFF;"></rect><rect x="275.1359801042262" y="151.92935521381617" width="12.534133040056595" height="886.0118694590868" style="fill: #FFFFFF;stroke-width: 2; stroke: #FFFFFF;"></rect><rect x="263.62114754315525" y="1037.941224672903" width="11.514832561070925" height="244.98579200869574" style="fill: #373737;stroke-width: 2; stroke: #373737;"></rect><rect x="275.1359801042262" y="1037.941224672903" width="12.534133040056595" height="244.98579200869574" style="fill: #373737;stroke-width: 2; stroke: #373737;"></rect><rect x="287.67011314428277" y="151.92935521381617" width="2157.7347277229046" height="1033.6810550552846" style="fill: #ffffff;"></rect><rect x="2445.4048408671874" y="151.92935521381617" width="50.59515913281257" height="1033.6810550552846" style="fill: #ffffff;"></rect><rect x="287.67011314428277" y="1185.6104102691006" width="2157.7347277229046" height="478.3895897308994" style="fill: #ffffff;"></rect><rect x="2445.4048408671874" y="1185.6104102691006" width="50.59515913281257" height="478.3895897308994" style="fill: #ffffff;"></rect><rect x="287.67011314428277" y="151.92935521381617" width="2113.0919402527757" height="958.776630775916" style="fill: #ffffff;"></rect><rect x="2400.7620533970585" y="151.92935521381617" width="44.64278747012895" height="958.776630775916" style="fill: #ffffff;"></rect><rect x="287.67011314428277" y="1110.7059859897322" width="2113.0919402527757" height="74.90442427936841" style="fill: #ffffff;"></rect><rect x="2400.7620533970585" y="1110.7059859897322" width="44.64278747012895" height="74.90442427936841" style="fill: #ffffff;"></rect><rect x="287.67011314428277" y="151.92935521381617" width="2068.4491527826467" height="734.0633579378107" style="fill: #ffffff;"></rect><rect x="2356.1192659269295" y="151.92935521381617" width="44.64278747012895" height="734.0633579378107" style="fill: #FFFFFF;stroke-width: 2; stroke: #FFFFFF;"></rect><rect x="287.67011314428277" y="885.9927131516268" width="2068.4491527826467" height="224.71327283810535" style="fill: #ffffff;"></rect><rect x="2356.1192659269295" y="885.9927131516268" width="44.64278747012895" height="224.71327283810535" style="fill: #ffffff;"></rect><rect x="287.67011314428277" y="151.92935521381617" width="461.30880385800043" height="704.1015882260633" style="fill: #ffffff;"></rect><rect x="748.9789170022832" y="151.92935521381617" width="1607.1403489246463" height="704.1015882260633" style="fill: #ffffff;"></rect><rect x="287.67011314428277" y="856.0309434398795" width="461.30880385800043" height="29.961769711747365" style="fill: #fefefe;stroke-width: 2; stroke: #fefefe;"></rect><rect x="748.9789170022832" y="856.0309434398795" width="1607.1403489246463" height="29.961769711747365" style="fill: #969696;stroke-width: 2; stroke: #969696;"></rect><rect x="748.9789170022832" y="151.92935521381617" width="669.6418120519361" height="674.139818514316" style="fill: #ffffff;"></rect><rect x="1418.6207290542193" y="151.92935521381617" width="937.4985368727102" height="674.139818514316" style="fill: #ffffff;"></rect><rect x="748.9789170022832" y="826.0691737281321" width="669.6418120519361" height="29.961769711747365" style="fill: #707070;stroke-width: 2; stroke: #707070;"></rect><rect x="1418.6207290542193" y="826.0691737281321" width="937.4985368727102" height="29.961769711747365" style="fill: #dbdbdb;stroke-width: 2; stroke: #dbdbdb;"></rect><rect x="748.9789170022832" y="151.92935521381617" width="491.0706621714196" height="569.2736245232002" style="fill: #ffffff;"></rect><rect x="1240.0495791737028" y="151.92935521381617" width="178.5711498805165" height="569.2736245232002" style="fill: #ffffff;"></rect><rect x="748.9789170022832" y="721.2029797370163" width="491.0706621714196" height="104.86619399111578" style="fill: #ffffff;"></rect><rect x="1240.0495791737028" y="721.2029797370163" width="178.5711498805165" height="104.86619399111578" style="fill: #ffffff;"></rect><rect x="748.9789170022832" y="151.92935521381617" width="44.642787470129065" height="539.3118548114528" style="fill: #ffffff;"></rect><rect x="793.6217044724123" y="151.92935521381617" width="446.42787470129053" height="539.3118548114528" style="fill: #ffffff;"></rect><rect x="748.9789170022832" y="691.241210025269" width="44.642787470129065" height="29.961769711747365" style="fill: #afafaf;stroke-width: 2; stroke: #afafaf;"></rect><rect x="793.6217044724123" y="691.241210025269" width="446.42787470129053" height="29.961769711747365" style="fill: #FFFFFF;stroke-width: 2; stroke: #FFFFFF;"></rect><rect x="1240.0495791737028" y="151.92935521381617" width="59.52371662683868" height="539.3118548114528" style="fill: #ffffff;"></rect><rect x="1299.5732958005415" y="151.92935521381617" width="119.04743325367781" height="539.3118548114528" style="fill: #ffffff;"></rect><rect x="1240.0495791737028" y="691.241210025269" width="59.52371662683868" height="29.961769711747365" style="fill: #d8d8d8;stroke-width: 2; stroke: #d8d8d8;"></rect><rect x="1299.5732958005415" y="691.241210025269" width="119.04743325367781" height="29.961769711747365" style="fill: #fefefe;stroke-width: 2; stroke: #fefefe;"></rect><rect x="748.9789170022832" y="721.2029797370163" width="74.4046457835484" height="14.980884855873683" style="fill: #656565;stroke-width: 2; stroke: #656565;"></rect><rect x="823.3835627858316" y="721.2029797370163" width="416.6660163878712" height="14.980884855873683" style="fill: #FFFFFF;stroke-width: 2; stroke: #FFFFFF;"></rect><rect x="748.9789170022832" y="736.18386459289" width="74.4046457835484" height="89.8853091352421" style="fill: #ffffff;"></rect><rect x="823.3835627858316" y="736.18386459289" width="416.6660163878712" height="89.8853091352421" style="fill: #ffffff;"></rect><rect x="748.9789170022832" y="736.18386459289" width="44.642787470129065" height="14.980884855873683" style="fill: #c5c5c5;stroke-width: 2; stroke: #c5c5c5;"></rect><rect x="793.6217044724123" y="736.18386459289" width="29.76185831341934" height="14.980884855873683" style="fill: #060606;stroke-width: 2; stroke: #060606;"></rect><rect x="748.9789170022832" y="751.1647494487637" width="44.642787470129065" height="74.90442427936841" style="fill: #ffffff;"></rect><rect x="793.6217044724123" y="751.1647494487637" width="29.76185831341934" height="74.90442427936841" style="fill: #080808;stroke-width: 2; stroke: #080808;"></rect><rect x="748.9789170022832" y="751.1647494487637" width="14.880929156709726" height="29.961769711747365" style="fill: #fefefe;stroke-width: 2; stroke: #fefefe;"></rect><rect x="763.8598461589929" y="751.1647494487637" width="29.76185831341934" height="29.961769711747365" style="fill: #d2d2d2;stroke-width: 2; stroke: #d2d2d2;"></rect><rect x="748.9789170022832" y="781.1265191605111" width="14.880929156709726" height="44.94265456762105" style="fill: #fefefe;stroke-width: 2; stroke: #fefefe;"></rect><rect x="763.8598461589929" y="781.1265191605111" width="29.76185831341934" height="44.94265456762105" style="fill: #f8f8f8;stroke-width: 2; stroke: #f8f8f8;"></rect><rect x="823.3835627858316" y="736.18386459289" width="14.880929156709726" height="14.980884855873683" style="fill: #767676;stroke-width: 2; stroke: #767676;"></rect><rect x="838.2644919425413" y="736.18386459289" width="401.78508723116147" height="14.980884855873683" style="fill: #FFFFFF;stroke-width: 2; stroke: #FFFFFF;"></rect><rect x="823.3835627858316" y="751.1647494487637" width="14.880929156709726" height="74.90442427936841" style="fill: #000000;stroke-width: 2; stroke: #000000;"></rect><rect x="838.2644919425413" y="751.1647494487637" width="401.78508723116147" height="74.90442427936841" style="fill: #ffffff;"></rect><rect x="838.2644919425413" y="751.1647494487637" width="29.76185831341934" height="44.94265456762105" style="fill: #0f0f0f;stroke-width: 2; stroke: #0f0f0f;"></rect><rect x="868.0263502559607" y="751.1647494487637" width="372.02322891774213" height="44.94265456762105" style="fill: #ffffff;"></rect><rect x="838.2644919425413" y="796.1074040163847" width="29.76185831341934" height="29.961769711747365" style="fill: #000000;stroke-width: 2; stroke: #000000;"></rect><rect x="868.0263502559607" y="796.1074040163847" width="372.02322891774213" height="29.961769711747365" style="fill: #FFFFFF;stroke-width: 2; stroke: #FFFFFF;"></rect><rect x="868.0263502559607" y="751.1647494487637" width="14.880929156709726" height="14.980884855873683" style="fill: #e4e4e4;stroke-width: 2; stroke: #e4e4e4;"></rect><rect x="882.9072794126704" y="751.1647494487637" width="357.1422997610324" height="14.980884855873683" style="fill: #FFFFFF;stroke-width: 2; stroke: #FFFFFF;"></rect><rect x="868.0263502559607" y="766.1456343046374" width="14.880929156709726" height="29.961769711747365" style="fill: #3c3c3c;stroke-width: 2; stroke: #3c3c3c;"></rect><rect x="882.9072794126704" y="766.1456343046374" width="357.1422997610324" height="29.961769711747365" style="fill: #fdfdfd;stroke-width: 2; stroke: #fdfdfd;"></rect><rect x="1240.0495791737028" y="721.2029797370163" width="148.80929156709703" height="14.980884855873683" style="fill: #ababab;stroke-width: 2; stroke: #ababab;"></rect><rect x="1388.8588707407998" y="721.2029797370163" width="29.761858313419452" height="14.980884855873683" style="fill: #fefefe;stroke-width: 2; stroke: #fefefe;"></rect><rect x="1240.0495791737028" y="736.18386459289" width="148.80929156709703" height="89.8853091352421" style="fill: #ffffff;"></rect><rect x="1388.8588707407998" y="736.18386459289" width="29.761858313419452" height="89.8853091352421" style="fill: #f1f1f1;stroke-width: 2; stroke: #f1f1f1;"></rect><rect x="1240.0495791737028" y="736.18386459289" width="14.880929156709726" height="59.92353942349473" style="fill: #505050;stroke-width: 2; stroke: #505050;"></rect><rect x="1254.9305083304125" y="736.18386459289" width="133.9283624103873" height="59.92353942349473" style="fill: #ffffff;"></rect><rect x="1240.0495791737028" y="796.1074040163847" width="14.880929156709726" height="29.961769711747365" style="fill: #fefefe;stroke-width: 2; stroke: #fefefe;"></rect><rect x="1254.9305083304125" y="796.1074040163847" width="133.9283624103873" height="29.961769711747365" style="fill: #8c8c8c;stroke-width: 2; stroke: #8c8c8c;"></rect><rect x="1254.9305083304125" y="736.18386459289" width="104.16650409696786" height="14.980884855873683" style="fill: #161616;stroke-width: 2; stroke: #161616;"></rect><rect x="1359.0970124273804" y="736.18386459289" width="29.761858313419452" height="14.980884855873683" style="fill: #f2f2f2;stroke-width: 2; stroke: #f2f2f2;"></rect><rect x="1254.9305083304125" y="751.1647494487637" width="104.16650409696786" height="44.94265456762105" style="fill: #ffffff;"></rect><rect x="1359.0970124273804" y="751.1647494487637" width="29.761858313419452" height="44.94265456762105" style="fill: #303030;stroke-width: 2; stroke: #303030;"></rect><rect x="1254.9305083304125" y="751.1647494487637" width="14.880929156709726" height="14.980884855873683" style="fill: #070707;stroke-width: 2; stroke: #070707;"></rect><rect x="1269.8114374871222" y="751.1647494487637" width="89.28557494025813" height="14.980884855873683" style="fill: #060606;stroke-width: 2; stroke: #060606;"></rect><rect x="1254.9305083304125" y="766.1456343046374" width="14.880929156709726" height="29.961769711747365" style="fill: #070707;stroke-width: 2; stroke: #070707;"></rect><rect x="1269.8114374871222" y="766.1456343046374" width="89.28557494025813" height="29.961769711747365" style="fill: #040404;stroke-width: 2; stroke: #040404;"></rect><rect x="1418.6207290542193" y="151.92935521381617" width="892.8557494025813" height="14.980884855873683" style="fill: #FFFFFF;stroke-width: 2; stroke: #FFFFFF;"></rect><rect x="2311.4764784568006" y="151.92935521381617" width="44.64278747012895" height="14.980884855873683" style="fill: #fefefe;stroke-width: 2; stroke: #fefefe;"></rect><rect x="1418.6207290542193" y="166.91024006968985" width="892.8557494025813" height="659.1589336584423" style="fill: #ffffff;"></rect><rect x="2311.4764784568006" y="166.91024006968985" width="44.64278747012895" height="659.1589336584423" style="fill: #FFFFFF;stroke-width: 2; stroke: #FFFFFF;"></rect><rect x="1418.6207290542193" y="166.91024006968985" width="863.0938910891618" height="29.961769711747365" style="fill: #FFFFFF;stroke-width: 2; stroke: #FFFFFF;"></rect><rect x="2281.714620143381" y="166.91024006968985" width="29.761858313419452" height="29.961769711747365" style="fill: #FFFFFF;stroke-width: 2; stroke: #FFFFFF;"></rect><rect x="1418.6207290542193" y="196.8720097814372" width="863.0938910891618" height="629.1971639466949" style="fill: #ffffff;"></rect><rect x="2281.714620143381" y="196.8720097814372" width="29.761858313419452" height="629.1971639466949" style="fill: #FFFFFF;stroke-width: 2; stroke: #FFFFFF;"></rect><rect x="1418.6207290542193" y="196.8720097814372" width="833.3320327757424" height="14.980884855873683" style="fill: #FFFFFF;stroke-width: 2; stroke: #FFFFFF;"></rect><rect x="2251.9527618299617" y="196.8720097814372" width="29.761858313419452" height="14.980884855873683" style="fill: #FFFFFF;stroke-width: 2; stroke: #FFFFFF;"></rect><rect x="1418.6207290542193" y="211.8528946373109" width="833.3320327757424" height="614.2162790908212" style="fill: #ffffff;"></rect><rect x="2251.9527618299617" y="211.8528946373109" width="29.761858313419452" height="614.2162790908212" style="fill: #FFFFFF;stroke-width: 2; stroke: #FFFFFF;"></rect><rect x="1418.6207290542193" y="211.8528946373109" width="491.0706621714198" height="539.3118548114528" style="fill: #ffffff;"></rect><rect x="1909.691391225639" y="211.8528946373109" width="342.26137060432256" height="539.3118548114528" style="fill: #FFFFFF;stroke-width: 2; stroke: #FFFFFF;"></rect><rect x="1418.6207290542193" y="751.1647494487637" width="491.0706621714198" height="74.90442427936841" style="fill: #ffffff;"></rect><rect x="1909.691391225639" y="751.1647494487637" width="342.26137060432256" height="74.90442427936841" style="fill: #ffffff;"></rect><rect x="1418.6207290542193" y="211.8528946373109" width="342.261370604323" height="509.35008509970544" style="fill: #ffffff;stroke-width: 2; stroke: #ffffff;"></rect><rect x="1760.8820996585423" y="211.8528946373109" width="148.8092915670968" height="509.35008509970544" style="fill: #ffffff;"></rect><rect x="1418.6207290542193" y="721.2029797370163" width="342.261370604323" height="29.961769711747365" style="fill: #fefefe;stroke-width: 2; stroke: #fefefe;"></rect><rect x="1760.8820996585423" y="721.2029797370163" width="148.8092915670968" height="29.961769711747365" style="fill: #c0c0c0;stroke-width: 2; stroke: #c0c0c0;"></rect><rect x="1418.6207290542193" y="751.1647494487637" width="342.261370604323" height="14.980884855873683" style="fill: #fefefe;stroke-width: 2; stroke: #fefefe;"></rect><rect x="1760.8820996585423" y="751.1647494487637" width="148.8092915670968" height="14.980884855873683" style="fill: #6d6d6d;stroke-width: 2; stroke: #6d6d6d;"></rect><rect x="1418.6207290542193" y="766.1456343046374" width="342.261370604323" height="59.92353942349473" style="fill: #ffffff;"></rect><rect x="1760.8820996585423" y="766.1456343046374" width="148.8092915670968" height="59.92353942349473" style="fill: #ffffff;"></rect><rect x="1418.6207290542193" y="766.1456343046374" width="312.49951229090357" height="29.961769711747365" style="fill: #fefefe;stroke-width: 2; stroke: #fefefe;"></rect><rect x="1731.1202413451228" y="766.1456343046374" width="29.761858313419452" height="29.961769711747365" style="fill: #d5d5d5;stroke-width: 2; stroke: #d5d5d5;"></rect><rect x="1418.6207290542193" y="796.1074040163847" width="312.49951229090357" height="29.961769711747365" style="fill: #fefefe;stroke-width: 2; stroke: #fefefe;"></rect><rect x="1731.1202413451228" y="796.1074040163847" width="29.761858313419452" height="29.961769711747365" style="fill: #d4d4d4;stroke-width: 2; stroke: #d4d4d4;"></rect><rect x="1760.8820996585423" y="766.1456343046374" width="104.16650409696786" height="14.980884855873683" style="fill: #101010;stroke-width: 2; stroke: #101010;"></rect><rect x="1865.0486037555102" y="766.1456343046374" width="44.64278747012895" height="14.980884855873683" style="fill: #fefefe;stroke-width: 2; stroke: #fefefe;"></rect><rect x="1760.8820996585423" y="781.1265191605111" width="104.16650409696786" height="44.94265456762105" style="fill: #ffffff;"></rect><rect x="1865.0486037555102" y="781.1265191605111" width="44.64278747012895" height="44.94265456762105" style="fill: #ffffff;"></rect><rect x="1760.8820996585423" y="781.1265191605111" width="74.4046457835484" height="14.980884855873683" style="fill: #020202;stroke-width: 2; stroke: #020202;"></rect><rect x="1835.2867454420907" y="781.1265191605111" width="29.761858313419452" height="14.980884855873683" style="fill: #1e1e1e;stroke-width: 2; stroke: #1e1e1e;"></rect><rect x="1760.8820996585423" y="796.1074040163847" width="74.4046457835484" height="29.961769711747365" style="fill: #000000;stroke-width: 2; stroke: #000000;"></rect><rect x="1835.2867454420907" y="796.1074040163847" width="29.761858313419452" height="29.961769711747365" style="fill: #1f1f1f;stroke-width: 2; stroke: #1f1f1f;"></rect><rect x="287.67011314428277" y="885.9927131516268" width="1994.7946358308168" height="193.8651604468954" style="fill: #ffffff;"></rect><rect x="2282.4647489750996" y="885.9927131516268" width="73.65451695182992" height="193.8651604468954" style="fill: #ffffff;"></rect><rect x="287.67011314428277" y="1079.8578735985222" width="1994.7946358308168" height="30.848112391209952" style="fill: #ffffff;"></rect><rect x="2282.4647489750996" y="1079.8578735985222" width="73.65451695182992" height="30.848112391209952" style="fill: #424242;stroke-width: 2; stroke: #424242;"></rect><rect x="287.67011314428277" y="885.9927131516268" width="1949.7992681053097" height="104.38893254832828" style="fill: #ffffff;"></rect><rect x="2237.4693812495925" y="885.9927131516268" width="44.995367725507094" height="104.38893254832828" style="fill: #ffffff;"></rect><rect x="287.67011314428277" y="990.3816456999551" width="1949.7992681053097" height="89.47622789856712" style="fill: #ffffff;"></rect><rect x="2237.4693812495925" y="990.3816456999551" width="44.995367725507094" height="89.47622789856712" style="fill: #ffffff;"></rect><rect x="287.67011314428277" y="885.9927131516268" width="404.95830952956436" height="14.912704649761167" style="fill: #fefefe;stroke-width: 2; stroke: #fefefe;"></rect><rect x="692.6284226738471" y="885.9927131516268" width="1544.8409585757454" height="14.912704649761167" style="fill: #626262;stroke-width: 2; stroke: #626262;"></rect><rect x="287.67011314428277" y="900.905417801388" width="404.95830952956436" height="89.47622789856712" style="fill: #ffffff;"></rect><rect x="692.6284226738471" y="900.905417801388" width="1544.8409585757454" height="89.47622789856712" style="fill: #ffffff;"></rect><rect x="287.67011314428277" y="900.905417801388" width="284.9706622615452" height="29.825409299522335" style="fill: #fefefe;stroke-width: 2; stroke: #fefefe;"></rect><rect x="572.640775405828" y="900.905417801388" width="119.98764726801915" height="29.825409299522335" style="fill: #bbbbbb;stroke-width: 2; stroke: #bbbbbb;"></rect><rect x="287.67011314428277" y="930.7308271009103" width="284.9706622615452" height="59.65081859904478" style="fill: #ffffff;"></rect><rect x="572.640775405828" y="930.7308271009103" width="119.98764726801915" height="59.65081859904478" style="fill: #ffffff;"></rect><rect x="287.67011314428277" y="930.7308271009103" width="254.97375044454049" height="14.912704649761167" style="fill: #fefefe;stroke-width: 2; stroke: #fefefe;"></rect><rect x="542.6438635888233" y="930.7308271009103" width="29.99691181700473" height="14.912704649761167" style="fill: #fefefe;stroke-width: 2; stroke: #fefefe;"></rect><rect x="287.67011314428277" y="945.6435317506715" width="254.97375044454049" height="44.738113949283616" style="fill: #ffffff;"></rect><rect x="542.6438635888233" y="945.6435317506715" width="29.99691181700473" height="44.738113949283616" style="fill: #5f5f5f;stroke-width: 2; stroke: #5f5f5f;"></rect><rect x="287.67011314428277" y="945.6435317506715" width="194.97992681053097" height="14.912704649761167" style="fill: #fefefe;stroke-width: 2; stroke: #fefefe;"></rect><rect x="482.65003995481374" y="945.6435317506715" width="59.993823634009516" height="14.912704649761167" style="fill: #fcfcfc;stroke-width: 2; stroke: #fcfcfc;"></rect><rect x="287.67011314428277" y="960.5562364004327" width="194.97992681053097" height="29.82540929952245" style="fill: #fcfcfc;stroke-width: 2; stroke: #fcfcfc;"></rect><rect x="482.65003995481374" y="960.5562364004327" width="59.993823634009516" height="29.82540929952245" style="fill: #676767;stroke-width: 2; stroke: #676767;"></rect><rect x="572.640775405828" y="930.7308271009103" width="14.998455908502365" height="14.912704649761167" style="fill: #d7d7d7;stroke-width: 2; stroke: #d7d7d7;"></rect><rect x="587.6392313143303" y="930.7308271009103" width="104.98919135951678" height="14.912704649761167" style="fill: #5d5d5d;stroke-width: 2; stroke: #5d5d5d;"></rect><rect x="572.640775405828" y="945.6435317506715" width="14.998455908502365" height="44.738113949283616" style="fill: #616161;stroke-width: 2; stroke: #616161;"></rect><rect x="587.6392313143303" y="945.6435317506715" width="104.98919135951678" height="44.738113949283616" style="fill: #ffffff;"></rect><rect x="587.6392313143303" y="945.6435317506715" width="74.99227954251194" height="14.912704649761167" style="fill: #828282;stroke-width: 2; stroke: #828282;"></rect><rect x="662.6315108568423" y="945.6435317506715" width="29.996911817004843" height="14.912704649761167" style="fill: #686868;stroke-width: 2; stroke: #686868;"></rect><rect x="587.6392313143303" y="960.5562364004327" width="74.99227954251194" height="29.82540929952245" style="fill: #4b4b4b;stroke-width: 2; stroke: #4b4b4b;"></rect><rect x="662.6315108568423" y="960.5562364004327" width="29.996911817004843" height="29.82540929952245" style="fill: #030303;stroke-width: 2; stroke: #030303;"></rect><rect x="692.6284226738471" y="900.905417801388" width="119.98764726801903" height="59.65081859904467" style="fill: #ffffff;"></rect><rect x="812.6160699418662" y="900.905417801388" width="1424.8533113077265" height="59.65081859904467" style="fill: #ffffff;"></rect><rect x="692.6284226738471" y="960.5562364004327" width="119.98764726801903" height="29.82540929952245" style="fill: #000000;stroke-width: 2; stroke: #000000;"></rect><rect x="812.6160699418662" y="960.5562364004327" width="1424.8533113077265" height="29.82540929952245" style="fill: #FFFFFF;stroke-width: 2; stroke: #FFFFFF;"></rect><rect x="692.6284226738471" y="900.905417801388" width="89.9907354510143" height="29.825409299522335" style="fill: #808080;stroke-width: 2; stroke: #808080;"></rect><rect x="782.6191581248614" y="900.905417801388" width="29.99691181700473" height="29.825409299522335" style="fill: #8c8c8c;stroke-width: 2; stroke: #8c8c8c;"></rect><rect x="692.6284226738471" y="930.7308271009103" width="89.9907354510143" height="29.825409299522335" style="fill: #2e2e2e;stroke-width: 2; stroke: #2e2e2e;"></rect><rect x="782.6191581248614" y="930.7308271009103" width="29.99691181700473" height="29.825409299522335" style="fill: #020202;stroke-width: 2; stroke: #020202;"></rect><rect x="812.6160699418662" y="900.905417801388" width="674.9305158826072" height="29.825409299522335" style="fill: #080808;stroke-width: 2; stroke: #080808;"></rect><rect x="1487.5465858244734" y="900.905417801388" width="749.9227954251191" height="29.825409299522335" style="fill: #585858;stroke-width: 2; stroke: #585858;"></rect><rect x="812.6160699418662" y="930.7308271009103" width="674.9305158826072" height="29.825409299522335" style="fill: #525252;stroke-width: 2; stroke: #525252;"></rect><rect x="1487.5465858244734" y="930.7308271009103" width="749.9227954251191" height="29.825409299522335" style="fill: #1e1e1e;stroke-width: 2; stroke: #1e1e1e;"></rect><rect x="2237.4693812495925" y="885.9927131516268" width="14.998455908502365" height="74.56352324880584" style="fill: #3a3a3a;stroke-width: 2; stroke: #3a3a3a;"></rect><rect x="2252.467837158095" y="885.9927131516268" width="29.99691181700473" height="74.56352324880584" style="fill: #3f3f3f;stroke-width: 2; stroke: #3f3f3f;"></rect><rect x="2237.4693812495925" y="960.5562364004327" width="14.998455908502365" height="29.82540929952245" style="fill: #222222;stroke-width: 2; stroke: #222222;"></rect><rect x="2252.467837158095" y="960.5562364004327" width="29.99691181700473" height="29.82540929952245" style="fill: #232323;stroke-width: 2; stroke: #232323;"></rect><rect x="287.67011314428277" y="990.3816456999551" width="164.98301499352618" height="59.65081859904478" style="fill: #ffffff;"></rect><rect x="452.65312813780895" y="990.3816456999551" width="1784.8162531117837" height="59.65081859904478" style="fill: #ffffff;"></rect><rect x="287.67011314428277" y="1050.032464299" width="164.98301499352618" height="29.825409299522335" style="fill: #373737;stroke-width: 2; stroke: #373737;"></rect><rect x="452.65312813780895" y="1050.032464299" width="1784.8162531117837" height="29.825409299522335" style="fill: #FFFFFF;stroke-width: 2; stroke: #FFFFFF;"></rect><rect x="287.67011314428277" y="990.3816456999551" width="134.98610317652145" height="14.912704649761167" style="fill: #fefefe;stroke-width: 2; stroke: #fefefe;"></rect><rect x="422.6562163208042" y="990.3816456999551" width="29.99691181700473" height="14.912704649761167" style="fill: #dadada;stroke-width: 2; stroke: #dadada;"></rect><rect x="287.67011314428277" y="1005.2943503497163" width="134.98610317652145" height="44.738113949283616" style="fill: #ffffff;"></rect><rect x="422.6562163208042" y="1005.2943503497163" width="29.99691181700473" height="44.738113949283616" style="fill: #373737;stroke-width: 2; stroke: #373737;"></rect><rect x="287.67011314428277" y="1005.2943503497163" width="104.98919135951667" height="14.912704649761167" style="fill: #fefefe;stroke-width: 2; stroke: #fefefe;"></rect><rect x="392.65930450379943" y="1005.2943503497163" width="29.996911817004786" height="14.912704649761167" style="fill: #d8d8d8;stroke-width: 2; stroke: #d8d8d8;"></rect><rect x="287.67011314428277" y="1020.2070549994775" width="104.98919135951667" height="29.82540929952245" style="fill: #d7d7d7;stroke-width: 2; stroke: #d7d7d7;"></rect><rect x="392.65930450379943" y="1020.2070549994775" width="29.996911817004786" height="29.82540929952245" style="fill: #242424;stroke-width: 2; stroke: #242424;"></rect><rect x="452.65312813780895" y="990.3816456999551" width="141.63931124925728" height="26.42588465085646" style="fill: #373737;stroke-width: 2; stroke: #373737;"></rect><rect x="594.2924393870662" y="990.3816456999551" width="1643.1769418625263" height="26.42588465085646" style="fill: #FFFFFF;stroke-width: 2; stroke: #FFFFFF;"></rect><rect x="452.65312813780895" y="1016.8075303508116" width="141.63931124925728" height="33.22493394818832" style="fill: #262626;stroke-width: 2; stroke: #262626;"></rect><rect x="594.2924393870662" y="1016.8075303508116" width="1643.1769418625263" height="33.22493394818832" style="fill: #FFFFFF;stroke-width: 2; stroke: #FFFFFF;"></rect><rect x="2237.4693812495925" y="990.3816456999551" width="14.998455908502365" height="14.912704649761167" style="fill: #050505;stroke-width: 2; stroke: #050505;"></rect><rect x="2252.467837158095" y="990.3816456999551" width="29.99691181700473" height="14.912704649761167" style="fill: #020202;stroke-width: 2; stroke: #020202;"></rect><rect x="2237.4693812495925" y="1005.2943503497163" width="14.998455908502365" height="74.56352324880595" style="fill: #000000;stroke-width: 2; stroke: #000000;"></rect><rect x="2252.467837158095" y="1005.2943503497163" width="29.99691181700473" height="74.56352324880595" style="fill: #000000;stroke-width: 2; stroke: #000000;"></rect><rect x="2282.4647489750996" y="885.9927131516268" width="12.275752825305062" height="104.38893254832828" style="fill: #3a3a3a;stroke-width: 2; stroke: #3a3a3a;"></rect><rect x="2294.7405018004047" y="885.9927131516268" width="61.37876412652486" height="104.38893254832828" style="fill: #2f2f2f;stroke-width: 2; stroke: #2f2f2f;"></rect><rect x="2282.4647489750996" y="990.3816456999551" width="12.275752825305062" height="89.47622789856712" style="fill: #050505;stroke-width: 2; stroke: #050505;"></rect><rect x="2294.7405018004047" y="990.3816456999551" width="61.37876412652486" height="89.47622789856712" style="fill: #ffffff;"></rect><rect x="2294.7405018004047" y="990.3816456999551" width="12.275752825305062" height="29.825409299522335" style="fill: #000000;stroke-width: 2; stroke: #000000;"></rect><rect x="2307.0162546257097" y="990.3816456999551" width="49.103011301219794" height="29.825409299522335" style="fill: #010101;stroke-width: 2; stroke: #010101;"></rect><rect x="2294.7405018004047" y="1020.2070549994775" width="12.275752825305062" height="59.65081859904478" style="fill: #1c1c1c;stroke-width: 2; stroke: #1c1c1c;"></rect><rect x="2307.0162546257097" y="1020.2070549994775" width="49.103011301219794" height="59.65081859904478" style="fill: #ffffff;"></rect><rect x="2307.0162546257097" y="1020.2070549994775" width="24.551505650610125" height="14.912704649761167" style="fill: #070707;stroke-width: 2; stroke: #070707;"></rect><rect x="2331.56776027632" y="1020.2070549994775" width="24.55150565060967" height="14.912704649761167" style="fill: #060606;stroke-width: 2; stroke: #060606;"></rect><rect x="2307.0162546257097" y="1035.1197596492386" width="24.551505650610125" height="44.738113949283616" style="fill: #3b3b3b;stroke-width: 2; stroke: #3b3b3b;"></rect><rect x="2331.56776027632" y="1035.1197596492386" width="24.55150565060967" height="44.738113949283616" style="fill: #141414;stroke-width: 2; stroke: #141414;"></rect><rect x="287.67011314428277" y="1079.8578735985222" width="104.76616284297967" height="15.089849101912705" style="fill: #373737;stroke-width: 2; stroke: #373737;"></rect><rect x="392.43627598726243" y="1079.8578735985222" width="1890.0284729878372" height="15.089849101912705" style="fill: #FFFFFF;stroke-width: 2; stroke: #FFFFFF;"></rect><rect x="287.67011314428277" y="1094.947722700435" width="104.76616284297967" height="15.758263289297247" style="fill: #373737;stroke-width: 2; stroke: #373737;"></rect><rect x="392.43627598726243" y="1094.947722700435" width="1890.0284729878372" height="15.758263289297247" style="fill: #FFFFFF;stroke-width: 2; stroke: #FFFFFF;"></rect><rect x="2356.1192659269295" y="885.9927131516268" width="14.880929156709499" height="104.86619399111578" style="fill: #2d2d2d;stroke-width: 2; stroke: #2d2d2d;"></rect><rect x="2371.000195083639" y="885.9927131516268" width="29.761858313419452" height="104.86619399111578" style="fill: #303030;stroke-width: 2; stroke: #303030;"></rect><rect x="2356.1192659269295" y="990.8589071427426" width="14.880929156709499" height="119.84707884698958" style="fill: #080808;stroke-width: 2; stroke: #080808;"></rect><rect x="2371.000195083639" y="990.8589071427426" width="29.761858313419452" height="119.84707884698958" style="fill: #090909;stroke-width: 2; stroke: #090909;"></rect><rect x="2400.7620533970585" y="151.92935521381617" width="14.880929156709499" height="734.0633579378107" style="fill: #FFFFFF;stroke-width: 2; stroke: #FFFFFF;"></rect><rect x="2415.642982553768" y="151.92935521381617" width="29.761858313419452" height="734.0633579378107" style="fill: #FFFFFF;stroke-width: 2; stroke: #FFFFFF;"></rect><rect x="2400.7620533970585" y="885.9927131516268" width="14.880929156709499" height="224.71327283810535" style="fill: #161616;stroke-width: 2; stroke: #161616;"></rect><rect x="2415.642982553768" y="885.9927131516268" width="29.761858313419452" height="224.71327283810535" style="fill: #181818;stroke-width: 2; stroke: #181818;"></rect><rect x="287.67011314428277" y="1110.7059859897322" width="2072.9839864252094" height="39.31963948221073" style="fill: #ffffff;"></rect><rect x="2360.6540995694922" y="1110.7059859897322" width="40.107953827566234" height="39.31963948221073" style="fill: #121212;stroke-width: 2; stroke: #121212;"></rect><rect x="287.67011314428277" y="1150.025625471943" width="2072.9839864252094" height="35.58478479715768" style="fill: #FFFFFF;"></rect><rect x="2360.6540995694922" y="1150.025625471943" width="40.107953827566234" height="35.58478479715768" style="fill: #b0b0b0;stroke-width: 2; stroke: #b0b0b0;"></rect><rect x="287.67011314428277" y="1110.7059859897322" width="60.08649236015097" height="13.106546494070244" style="fill: #373737;stroke-width: 2; stroke: #373737;"></rect><rect x="347.75660550443376" y="1110.7059859897322" width="2012.8974940650585" height="13.106546494070244" style="fill: #FFFFFF;stroke-width: 2; stroke: #FFFFFF;"></rect><rect x="287.67011314428277" y="1123.8125324838024" width="60.08649236015097" height="26.213092988140488" style="fill: #373737;stroke-width: 2; stroke: #373737;"></rect><rect x="347.75660550443376" y="1123.8125324838024" width="2012.8974940650585" height="26.213092988140488" style="fill: #FFFFFF;stroke-width: 2; stroke: #FFFFFF;"></rect><rect x="2400.7620533970585" y="1110.7059859897322" width="14.880929156709499" height="44.94265456762105" style="fill: #080808;stroke-width: 2; stroke: #080808;"></rect><rect x="2415.642982553768" y="1110.7059859897322" width="29.761858313419452" height="44.94265456762105" style="fill: #070707;stroke-width: 2; stroke: #070707;"></rect><rect x="2400.7620533970585" y="1155.6486405573532" width="14.880929156709499" height="29.961769711747365" style="fill: #656565;stroke-width: 2; stroke: #656565;"></rect><rect x="2415.642982553768" y="1155.6486405573532" width="29.761858313419452" height="29.961769711747365" style="fill: #585858;stroke-width: 2; stroke: #585858;"></rect><rect x="2445.4048408671874" y="151.92935521381617" width="29.761858313419452" height="734.0633579378107" style="fill: #FFFFFF;stroke-width: 2; stroke: #FFFFFF;"></rect><rect x="2475.166699180607" y="151.92935521381617" width="20.833300819393116" height="734.0633579378107" style="fill: #FFFFFF;stroke-width: 2; stroke: #FFFFFF;"></rect><rect x="2445.4048408671874" y="885.9927131516268" width="29.761858313419452" height="299.61769711747377" style="fill: #202020;stroke-width: 2; stroke: #202020;"></rect><rect x="2475.166699180607" y="885.9927131516268" width="20.833300819393116" height="299.61769711747377" style="fill: #292929;stroke-width: 2; stroke: #292929;"></rect><rect x="287.67011314428277" y="1185.6104102691006" width="59.523716626838734" height="44.94265456762105" style="fill: #ffffff;"></rect><rect x="347.1938297711215" y="1185.6104102691006" width="2098.2110110960657" height="44.94265456762105" style="fill: #ffffff;"></rect><rect x="287.67011314428277" y="1230.5530648367217" width="59.523716626838734" height="433.44693516327834" style="fill: #ffffff;"></rect><rect x="347.1938297711215" y="1230.5530648367217" width="2098.2110110960657" height="433.44693516327834" style="fill: #ffffff;"></rect><rect x="287.67011314428277" y="1185.6104102691006" width="29.761858313419395" height="14.980884855873683" style="fill: #6C6C6C;stroke-width: 2; stroke: #6C6C6C;"></rect><rect x="317.43197145770216" y="1185.6104102691006" width="29.76185831341934" height="14.980884855873683" style="fill: #6C6C6C;stroke-width: 2; stroke: #6C6C6C;"></rect><rect x="287.67011314428277" y="1200.5912951249743" width="29.761858313419395" height="29.961769711747365" style="fill: #6C6C6C;stroke-width: 2; stroke: #6C6C6C;"></rect><rect x="317.43197145770216" y="1200.5912951249743" width="29.76185831341934" height="29.961769711747365" style="fill: #f1f1f1;stroke-width: 2; stroke: #f1f1f1;"></rect><rect x="287.67011314428277" y="1150.025625471943" width="59.27406941737604" height="18.45657907532518" style="fill: #373737;stroke-width: 2; stroke: #373737;"></rect><rect x="346.9441825616588" y="1150.025625471943" width="2013.7099170078334" height="18.45657907532518" style="fill: #FFFFFF;stroke-width: 2; stroke: #FFFFFF;"></rect><rect x="287.67011314428277" y="1168.482204547268" width="59.27406941737604" height="17.1282057218325" style="fill: #6C6C6C;stroke-width: 2; stroke: #6C6C6C;"></rect><rect x="346.9441825616588" y="1168.482204547268" width="2013.7099170078334" height="17.1282057218325" style="fill: #FFFFFF;stroke-width: 2; stroke: #FFFFFF;"></rect></svg>